# xmcd CD database file
#
# Track frame offsets:
#	150
#	11665
#	31297
#	50357
#	72892
#	93497
#	113187
#	131752
#	151867
#	173202
#	194082
#
# Disc length: 2616 seconds
#
# Revision: 0
# Processed by: cddbd v1.5.1PL0 Copyright (c) Steve Scherf et al.
# Submitted via: CDex 1.51
#
DISCID=930a360b
DTITLE=さいとうみわこ - Girl Meets Boy
DYEAR=1988
DGENRE=JPop
TTITLE0=Itsy Bitsy Teenie WinnieYellow Polka Dot Bikini
TTITLE1=RadioDream
TTITLE2=好奇心の猫たち
TTITLE3=サヨナラに拍手 -アプローズ-
TTITLE4=Lonely Star Dust Dance
TTITLE5=I Want Love
TTITLE6=The First Kiss
TTITLE7=Sweetest
TTITLE8=Forever Love Song
TTITLE9=A Girl Meets Boy
TTITLE10=Radio dream (Refrain)
EXTD=YEAR: 1988
EXTT0=
EXTT1=
EXTT2=
EXTT3=
EXTT4=
EXTT5=
EXTT6=
EXTT7=
EXTT8=
EXTT9=
EXTT10=
PLAYORDER=
